<?xml version="1.0" encoding="iso-8859-1"?>
<!-- Generator: Adobe Illustrator 19.0.0, SVG Export Plug-In . SVG Version: 6.00 Build 0)  -->
<svg version="1.1" id="Layer_1" xmlns="http://www.w3.org/2000/svg" xmlns:xlink="http://www.w3.org/1999/xlink" x="0px" y="0px"
	 viewBox="0 0 512 512" style="enable-background:new 0 0 512 512;" xml:space="preserve">
<path style="fill:#263B74;" d="M493.449,22.261C493.449,9.967,483.482,0,471.188,0H40.812C28.518,0,18.551,9.967,18.551,22.261
	v467.478c0,12.294,9.967,22.261,22.261,22.261h430.377c12.294,0,22.261-9.967,22.261-22.261V22.261z"/>
<path style="fill:#6A81B5;" d="M256,0H40.812C28.518,0,18.551,9.967,18.551,22.261v467.478c0,12.294,9.967,22.261,22.261,22.261H256
	V0z"/>
<path style="fill:#F5F5F5;" d="M146.117,135.791h-31.659c-9.016,0-16.325-7.309-16.325-16.325V87.807
	c0-9.016,7.309-16.325,16.325-16.325h31.659c9.016,0,16.325,7.309,16.325,16.325v31.659
	C162.442,128.482,155.133,135.791,146.117,135.791z"/>
<path style="fill:#51D2E1;" d="M146.117,214.941h-31.659c-9.016,0-16.325-7.309-16.325-16.325v-31.659
	c0-9.016,7.309-16.325,16.325-16.325h31.659c9.016,0,16.325,7.309,16.325,16.325v31.659
	C162.442,207.632,155.133,214.941,146.117,214.941z"/>
<g>
	<path style="fill:#F66E42;" d="M230.215,135.791h-31.659c-9.016,0-16.325-7.309-16.325-16.325V87.807
		c0-9.016,7.309-16.325,16.325-16.325h31.659c9.016,0,16.325,7.309,16.325,16.325v31.659
		C246.539,128.482,239.23,135.791,230.215,135.791z"/>
	<path style="fill:#F66E42;" d="M230.215,214.941h-31.659c-9.016,0-16.325-7.309-16.325-16.325v-31.659
		c0-9.016,7.309-16.325,16.325-16.325h31.659c9.016,0,16.325,7.309,16.325,16.325v31.659
		C246.539,207.632,239.23,214.941,230.215,214.941z"/>
</g>
<path style="fill:#0D9EC0;" d="M314.31,135.791h-31.659c-9.016,0-16.325-7.309-16.325-16.325V87.807
	c0-9.016,7.309-16.325,16.325-16.325h31.659c9.016,0,16.325,7.309,16.325,16.325v31.659
	C330.635,128.482,323.326,135.791,314.31,135.791z"/>
<path style="fill:#F5F5F5;" d="M314.31,214.941h-31.659c-9.016,0-16.325-7.309-16.325-16.325v-31.659
	c0-9.016,7.309-16.325,16.325-16.325h31.659c9.016,0,16.325,7.309,16.325,16.325v31.659
	C330.635,207.632,323.326,214.941,314.31,214.941z"/>
<g>
	<path style="fill:#F66E42;" d="M398.407,135.791h-31.659c-9.016,0-16.325-7.309-16.325-16.325V87.807
		c0-9.016,7.309-16.325,16.325-16.325h31.659c9.016,0,16.325,7.309,16.325,16.325v31.659
		C414.732,128.482,407.423,135.791,398.407,135.791z"/>
	<path style="fill:#F66E42;" d="M398.407,214.941h-31.659c-9.016,0-16.325-7.309-16.325-16.325v-31.659
		c0-9.016,7.309-16.325,16.325-16.325h31.659c9.016,0,16.325,7.309,16.325,16.325v31.659
		C414.732,207.632,407.423,214.941,398.407,214.941z"/>
</g>
<g>
	<path style="fill:#F5F5F5;" d="M169.689,362.852h-54.737c-12.294,0-22.261-9.967-22.261-22.261v-20.113
		c0-12.294,9.967-22.261,22.261-22.261h54.737c12.294,0,22.261,9.967,22.261,22.261v20.113
		C191.95,352.885,181.983,362.852,169.689,362.852z"/>
	<path style="fill:#F5F5F5;" d="M397.913,442.497H114.952c-12.294,0-22.261-9.967-22.261-22.261v-11.378
		c0-12.294,9.967-22.261,22.261-22.261h282.961c12.294,0,22.261,9.967,22.261,22.261v11.378
		C420.174,432.53,410.207,442.497,397.913,442.497z"/>
	<path style="fill:#F5F5F5;" d="M283.799,362.852h-54.735c-12.294,0-22.261-9.967-22.261-22.261v-20.113
		c0-12.294,9.967-22.261,22.261-22.261h54.737c12.294,0,22.261,9.967,22.261,22.261v20.113
		C306.06,352.885,296.095,362.852,283.799,362.852z"/>
	<path style="fill:#F5F5F5;" d="M397.913,362.852h-54.738c-12.294,0-22.261-9.967-22.261-22.261v-20.113
		c0-12.294,9.967-22.261,22.261-22.261h54.738c12.294,0,22.261,9.967,22.261,22.261v20.113
		C420.174,352.885,410.207,362.852,397.913,362.852z"/>
</g>
<g>
</g>
<g>
</g>
<g>
</g>
<g>
</g>
<g>
</g>
<g>
</g>
<g>
</g>
<g>
</g>
<g>
</g>
<g>
</g>
<g>
</g>
<g>
</g>
<g>
</g>
<g>
</g>
<g>
</g>
</svg>
